<svg width="20" height="18" viewBox="0 0 20 18" fill="none" xmlns="http://www.w3.org/2000/svg">
<path d="M17 6C18.7 6 20 4.7 20 3C20 1.3 18.7 0 17 0C15.7 0 14.6 0.8 14.2 2H0V4H14.2C14.6 5.2 15.7 6 17 6ZM17 2C17.6 2 18 2.4 18 3C18 3.6 17.6 4 17 4C16.4 4 16 3.6 16 3C16 2.4 16.4 2 17 2Z" fill="#202124"/>
<path d="M7 6C5.7 6 4.6 6.8 4.2 8H0V10H4.2C4.6 11.2 5.7 12 7 12C8.3 12 9.4 11.2 9.8 10H20V8H9.8C9.4 6.8 8.3 6 7 6ZM7 10C6.4 10 6 9.6 6 9C6 8.4 6.4 8 7 8C7.6 8 8 8.4 8 9C8 9.6 7.6 10 7 10Z" fill="#202124"/>
<path d="M17 12C15.7 12 14.6 12.8 14.2 14H0V16H14.2C14.6 17.2 15.7 18 17 18C18.7 18 20 16.7 20 15C20 13.3 18.7 12 17 12ZM17 16C16.4 16 16 15.6 16 15C16 14.4 16.4 14 17 14C17.6 14 18 14.4 18 15C18 15.6 17.6 16 17 16Z" fill="#202124"/>
</svg>
