<?xml version="1.0" encoding="UTF-8"?>
<svg width="20px" height="24px" viewBox="0 0 20 24" version="1.1" xmlns="http://www.w3.org/2000/svg" xmlns:xlink="http://www.w3.org/1999/xlink">
    <!-- Generator: Sketch 63.1 (92452) - https://sketch.com -->
    <title>ICON</title>
    <desc>Created with Sketch.</desc>
    <g id="Symbols" stroke="none" stroke-width="1" fill="none" fill-rule="evenodd">
        <g id="__LOCAL/Navigation/Checkout/Desktop/__components/Page-Title/Signed-Out" transform="translate(0.000000, -13.000000)" fill="#202124">
            <g id="__LOCAL/★-Icons/az-icon-lock">
                <g transform="translate(0.000000, 13.000000)">
                    <path d="M10,7.46069873e-14 C13.9106383,7.46069873e-14 17,2.61421053 17,6 L17,10 C18.5631689,10.0014032 20,11.6463021 20,13 L20,21 C20,22.3545614 18.7306513,24 17.1661123,24 L2.9787234,24 C1.4141844,24 0,22.3545614 0,21 L0,13 C0,11.6466667 1.43546099,10 3,10 L3,6 C3,2.61421053 6.0893617,7.46069873e-14 10,7.46069873e-14 Z M6,6 L6,10 L14,10 L13.996002,6 C13.996002,4.07033333 12.2022322,3 9.998001,3 C7.79576878,3 6,4.07033333 6,6 Z" id="Shape"></path>
                </g>
            </g>
        </g>
    </g>
</svg>