<svg xmlns="http://www.w3.org/2000/svg" width="27" height="23" viewBox="0 0 27 23">
    <g fill="none" fill-rule="evenodd">
        <path fill="#484848" d="M16.066 7a.53.53 0 0 1 .324.11l.052.04c.038.03.072.062.1.1l2.07 2.634c.105.133.26.21.425.21h2.295c.446 0 .668.25.668.75s-.422.95-1.267 1.354l-.206.096.922 1.27c.074.101.113.225.113.352v8.6a.487.487 0 0 1-.126.351.439.439 0 0 1-.334.133H17.42a.465.465 0 0 1-.46-.483v-.848c0-.32-.248-.58-.552-.58H5.591c-.304 0-.55.26-.55.58v.848a.465.465 0 0 1-.46.483H.896a.439.439 0 0 1-.334-.133.487.487 0 0 1-.126-.35v-8.6c0-.128.04-.252.113-.352l.922-1.27-.206-.097C.42 11.795 0 11.344 0 10.844c0-.5.221-.75.667-.75h2.296a.54.54 0 0 0 .424-.21l2.07-2.634a.587.587 0 0 1 .1-.1l.052-.04A.532.532 0 0 1 5.933 7zm3.554 8.783c.008-.685-.257-.947-.794-.786l-3.231.508a.509.509 0 0 0-.329.185c-.124.164-.22.412-.284.745-.092.476-.016.706.23.69l3.14-.048c.04 0 .08-.005.12-.015.758-.185 1.14-.611 1.148-1.279zm-16.446-.786c-.538-.16-.803.1-.795.786.008.668.39 1.094 1.149 1.28.039.009.08.013.12.014l3.14.047c.244.017.321-.213.23-.689-.065-.333-.16-.581-.285-.745a.51.51 0 0 0-.329-.185zm12.105-5.926H6.72a.503.503 0 0 0-.399.199l-1.803 2.31c-.276.354-.036.885.399.885h12.166c.435 0 .674-.53.399-.885l-1.803-2.31a.5.5 0 0 0-.4-.199z"/>
        <g transform="translate(13)">
            <circle cx="7" cy="7" r="7" fill="#1F7400" fill-rule="nonzero"/>
            <path fill="#FFF" d="M5.857 10L3 7.12l.806-.811L5.857 8.37 10.194 4l.806.818z"/>
        </g>
    </g>
</svg>
