<?xml version="1.0" encoding="UTF-8"?>
<svg width="20px" height="20px" viewBox="0 0 20 20" version="1.1" xmlns="http://www.w3.org/2000/svg" xmlns:xlink="http://www.w3.org/1999/xlink">
    <!-- Generator: Sketch 62 (91390) - https://sketch.com -->
    <title>icon-search-20x20</title>
    <desc>Created with Sketch.</desc>
    <g id="Future-State-(All-Devices)" stroke="none" stroke-width="1" fill="none" fill-rule="evenodd">
        <g id="Top-Navigation---Search-Redesign---High-Contrast---Signed-In" transform="translate(-368.000000, -212.000000)" fill="#202124">
            <g id="Desktop---Full" transform="translate(0.000000, 64.000000)">
                <g id="Desktop-(-1140px-)-Global-Nav" transform="translate(0.000000, 56.000000)">
                    <g id="ACTION-BAR" transform="translate(0.000000, 70.000000)">
                        <g id="Action-Bar-Content" transform="translate(20.000000, 8.000000)">
                            <g id="search-bar" transform="translate(332.000000, 0.000000)">
                                <g id="Group-10" transform="translate(16.000000, 14.000000)">
                                    <path d="M19.5773332,17.536474 L12.589845,10.5547728 C13.299579,9.45866967 13.6847396,8.18216778 13.6847396,6.84505194 C13.6847396,5.01725134 12.973563,3.29769001 11.6803179,2.00531302 C10.3877942,0.712214456 8.66971856,0 6.84200913,0 C5.01429976,0 3.29622409,0.712214456 2.00442161,2.00459143 C0.711897856,3.29769001 0,5.01725134 0,6.84505194 C0,8.67357411 0.711897856,10.3931354 2.00442161,11.6855124 C3.29622409,12.978611 5.01502103,13.6901039 6.84200913,13.6901039 C8.17925189,13.6901039 9.45446511,13.3062152 10.5500809,12.595444 L17.5375691,19.5771452 C17.8102109,19.8499082 18.1722907,20 18.5574511,20 C18.9426117,20 19.3046914,19.8499082 19.5773332,19.5771452 C19.8499749,19.3051039 20,18.942863 20,18.5568097 C20,18.1707562 19.8499749,17.8085154 19.5773332,17.536474 Z M3.26473417,10.3383934 C2.32030457,9.39421204 1.8,8.13864458 1.8,6.80222361 C1.8,5.46580267 2.32030457,4.21023519 3.26473417,3.26605379 C4.20916377,2.32053595 5.46417312,1.8 6.8,1.8 C8.1358269,1.8 9.39083617,2.32053595 10.3352659,3.26605379 C11.2796954,4.21023519 11.8,5.46580267 11.8,6.80222361 C11.8,8.13864458 11.2796954,9.39421204 10.3352659,10.3390617 C9.39083617,11.2845795 8.1358269,11.8044473 6.8,11.8044473 C5.46417312,11.8044473 4.20916377,11.2845795 3.26473417,10.3383934 Z" id="icon-search-20x20"></path>
                                </g>
                            </g>
                        </g>
                    </g>
                </g>
            </g>
        </g>
    </g>
</svg>