<svg xmlns="http://www.w3.org/2000/svg" xmlns:xlink="http://www.w3.org/1999/xlink" width="22" height="16" viewBox="0 0 22 16">
    <defs>
        <path id="a" d="M22 7.844c0 .5-.422.95-1.267 1.354l-.206.096.922 1.27c.074.101.113.225.113.352v8.6a.487.487 0 0 1-.126.351.439.439 0 0 1-.334.133H17.42a.465.465 0 0 1-.46-.483v-.848c0-.32-.248-.58-.552-.58H5.591c-.304 0-.55.26-.55.58v.848a.465.465 0 0 1-.46.483H.896a.439.439 0 0 1-.334-.133.487.487 0 0 1-.126-.35v-8.6c0-.128.04-.252.113-.352l.922-1.27-.206-.097C.42 8.795 0 8.344 0 7.844c0-.5.221-.75.667-.75h2.296a.54.54 0 0 0 .424-.21l2.07-2.634a.587.587 0 0 1 .1-.1l.052-.04A.532.532 0 0 1 5.933 4h10.133a.53.53 0 0 1 .324.11l.052.04c.038.03.072.062.1.1l2.07 2.634c.105.133.26.21.425.21h2.295c.446 0 .668.25.668.75zm-3.528 6.218c.758-.185 1.14-.611 1.148-1.279.008-.685-.257-.947-.794-.786l-3.231.508a.509.509 0 0 0-.329.185c-.124.164-.22.412-.284.745-.092.476-.016.706.23.69l3.14-.048c.04 0 .08-.005.12-.015zm-11.685.062c.245.017.322-.213.23-.689-.064-.333-.159-.581-.284-.745a.51.51 0 0 0-.329-.185l-3.23-.508c-.538-.16-.803.1-.795.786.008.668.39 1.094 1.149 1.28.039.009.08.013.12.014l3.14.047zM4.518 8.58c-.276.354-.036.885.399.885h12.166c.435 0 .674-.53.399-.885l-1.803-2.31a.5.5 0 0 0-.4-.199H6.72a.503.503 0 0 0-.399.199L4.518 8.58z"/>
    </defs>
    <use fill="#484848" fill-rule="evenodd" transform="translate(0 -4)" xlink:href="#a"/>
</svg>
